<?xml version="1.0" standalone="no"?>
<!DOCTYPE svg PUBLIC "-//W3C//DTD SVG 20010904//EN"
 "http://www.w3.org/TR/2001/REC-SVG-20010904/DTD/svg10.dtd">
<svg version="1.0" xmlns="http://www.w3.org/2000/svg"
 width="225.000000pt" height="225.000000pt" viewBox="0 0 225.000000 225.000000"
 preserveAspectRatio="xMidYMid meet">

<g transform="translate(0.000000,225.000000) scale(0.100000,-0.100000)"
fill="#000000" stroke="none">
<path d="M1671 2233 c-14 -12 -49 -101 -106 -268 -47 -137 -88 -256 -90 -264
-4 -11 -13 -7 -34 14 l-29 27 -109 -16 c-59 -9 -153 -23 -207 -31 -55 -8 -103
-15 -107 -15 -9 0 -979 -970 -979 -979 0 -3 155 -161 345 -351 l345 -345 489
490 488 490 13 90 c6 50 21 146 31 214 l20 124 -27 28 c-21 22 -24 30 -13 34
27 10 365 127 439 152 41 14 83 34 93 46 24 27 18 66 -14 90 -27 19 -27 19
-90 -3 -520 -182 -578 -198 -554 -160 3 5 50 139 104 297 103 301 106 319 62
342 -28 15 -46 14 -70 -6z m-256 -700 c-15 -36 -18 -103 -5 -118 14 -17 66
-20 106 -5 38 15 44 2 11 -26 -54 -46 -135 -26 -163 42 -15 36 -7 73 23 106
21 23 37 23 28 1z m-161 -208 c22 -17 12 -38 -15 -30 -28 9 -23 -5 17 -46 20
-21 43 -35 50 -32 21 8 17 -18 -8 -44 -26 -28 -38 -29 -38 -5 0 21 -73 96 -83
86 -4 -4 -2 -13 4 -20 14 -17 -8 -29 -26 -14 -23 19 -19 31 27 77 47 48 46 48
72 28z m-114 -108 c0 -6 21 -33 47 -59 37 -38 45 -50 35 -60 -10 -10 -25 -9
-73 4 l-61 17 28 -30 c15 -16 34 -29 41 -29 19 0 16 -14 -7 -35 -16 -14 -23
-16 -32 -7 -7 7 -8 12 -3 12 5 0 -9 18 -30 40 -21 22 -45 40 -52 40 -19 0 -16
-27 5 -42 10 -7 29 -28 42 -46 l24 -32 -21 -28 c-11 -15 -32 -31 -47 -36 -23
-9 -31 -5 -69 31 -23 22 -48 39 -54 36 -22 -8 -14 22 12 47 l24 23 10 -24 c23
-61 101 -100 101 -51 0 19 -66 90 -78 84 -3 -2 -8 0 -9 5 -2 5 16 28 40 51
l43 42 50 -15 c63 -19 61 -19 35 9 -13 14 -29 22 -37 19 -19 -7 -18 16 2 38
17 19 34 17 34 -4z m-209 -257 c21 -12 49 -60 49 -85 0 -24 -55 -75 -80 -75
-30 0 -90 62 -90 93 0 38 36 77 71 77 17 0 39 -5 50 -10z m-127 -119 c-3 -3
-15 -6 -26 -6 -11 0 -26 -8 -32 -17 -8 -14 -5 -23 19 -48 16 -16 36 -30 46
-30 23 0 41 24 28 37 -7 7 -5 14 4 21 11 9 17 6 28 -14 13 -25 12 -28 -19 -55
-41 -37 -76 -37 -113 0 -40 40 -39 82 1 123 30 29 31 30 50 13 11 -10 17 -21
14 -24z m-116 -93 c2 -11 -5 -18 -19 -20 -12 -2 -25 -9 -27 -17 -4 -11 2 -13
24 -8 16 3 37 9 46 12 19 7 58 -26 58 -50 0 -8 -13 -29 -29 -47 -24 -27 -33
-31 -47 -22 -29 17 -28 34 0 34 15 0 29 7 33 15 9 24 -2 28 -41 15 -46 -15
-76 0 -76 37 0 51 69 96 78 51z m-98 -75 c0 -24 69 -93 86 -86 23 9 16 -22
-11 -47 -23 -22 -25 -22 -31 -4 -9 25 -75 94 -85 88 -20 -12 -19 20 2 42 27
28 39 31 39 7z m-7 -104 c39 -42 34 -72 -21 -131 -27 -29 -58 -38 -49 -14 7
17 -62 86 -86 86 -25 0 -21 12 16 47 64 61 92 63 140 12z"/>
<path d="M856 924 c-19 -19 -8 -46 29 -70 49 -32 77 13 33 53 -36 32 -45 34
-62 17z"/>
<path d="M486 557 c-15 -11 -13 -16 23 -51 39 -38 61 -41 61 -7 0 16 -29 49
-56 64 -6 4 -19 1 -28 -6z"/>
</g>
</svg>
